<svg xmlns="http://www.w3.org/2000/svg" xmlns:xlink="http://www.w3.org/1999/xlink" width="500" zoomAndPan="magnify" viewBox="0 0 375 374.999991" height="500" preserveAspectRatio="xMidYMid meet" version="1.0"><defs><g/></defs><g fill="#000000" fill-opacity="1"><g transform="translate(107.140983, 279.361033)"><g><path d="M 7.546875 0 L 7.546875 -2.6875 L 14.546875 -2.6875 C 19.578125 -2.6875 23.035156 -3.898438 24.921875 -6.328125 C 26.804688 -8.753906 27.75 -14.097656 27.75 -22.359375 L 27.75 -170.296875 C 27.75 -178.203125 26.894531 -183.410156 25.1875 -185.921875 C 23.488281 -188.441406 20.125 -189.703125 15.09375 -189.703125 L 7.546875 -189.703125 L 7.546875 -192.40625 L 71.140625 -192.40625 L 71.140625 -189.703125 L 63.859375 -189.703125 C 58.828125 -189.703125 55.546875 -188.441406 54.015625 -185.921875 C 52.492188 -183.410156 51.734375 -178.203125 51.734375 -170.296875 L 51.734375 -77.609375 L 112.640625 -164.640625 C 116.585938 -170.390625 119.320312 -174.613281 120.84375 -177.3125 C 122.375 -180.007812 123.140625 -182.078125 123.140625 -183.515625 C 123.140625 -185.847656 121.835938 -187.460938 119.234375 -188.359375 C 116.628906 -189.253906 110.566406 -189.703125 101.046875 -189.703125 L 101.046875 -192.40625 L 146.328125 -192.40625 L 146.328125 -189.703125 C 142.191406 -189.703125 138.820312 -189.070312 136.21875 -187.8125 C 133.613281 -186.5625 130.828125 -184.09375 127.859375 -180.40625 C 124.898438 -176.726562 120.722656 -171.113281 115.328125 -163.5625 L 82.1875 -116.40625 L 134.203125 -25.875 C 139.410156 -16.53125 143.539062 -10.328125 146.59375 -7.265625 C 149.644531 -4.210938 152.425781 -2.6875 154.9375 -2.6875 L 155.484375 -2.6875 L 155.484375 0 L 145.25 0 C 138.414062 0 132.796875 -0.71875 128.390625 -2.15625 C 123.992188 -3.59375 120.046875 -6.375 116.546875 -10.5 C 113.046875 -14.632812 109.226562 -20.566406 105.09375 -28.296875 L 68.171875 -97.015625 L 51.734375 -72.75 L 51.734375 -22.90625 C 51.734375 -14.457031 52.628906 -8.972656 54.421875 -6.453125 C 56.222656 -3.941406 59.726562 -2.6875 64.9375 -2.6875 L 71.140625 -2.6875 L 71.140625 0 Z M 7.546875 0 "/></g></g></g><path stroke-linecap="round" transform="matrix(0.902924, 0, 0, 0.902473, 60.762147, 140.249609)" fill="none" stroke-linejoin="miter" d="M 0.501367 0.498197 L 280.368905 0.498197 " stroke="#000000" stroke-width="1" stroke-opacity="1" stroke-miterlimit="4"/><path stroke-linecap="round" transform="matrix(0.906113, 0, 0, 0.902473, 60.762147, 228.168647)" fill="none" stroke-linejoin="miter" d="M 0.499603 0.501341 L 69.225504 0.501341 " stroke="#000000" stroke-width="1" stroke-opacity="1" stroke-miterlimit="4"/><path stroke-linecap="round" transform="matrix(0.906113, 0, 0, 0.902473, 251.313533, 228.168647)" fill="none" stroke-linejoin="miter" d="M 0.498936 0.501341 L 69.224837 0.501341 " stroke="#000000" stroke-width="1" stroke-opacity="1" stroke-miterlimit="4"/><path stroke-linecap="round" transform="matrix(0.000000000000000055, -0.905649, 0.902473, 0.000000000000000055, 314.231557, 228.83921)" fill="none" stroke-linejoin="miter" d="M 0.499632 0.500887 L 97.171473 0.500887 " stroke="#000000" stroke-width="1" stroke-opacity="1" stroke-miterlimit="4"/><path stroke-linecap="round" transform="matrix(0.000000000000000055, -0.905649, 0.902473, 0.000000000000000055, 59.853392, 228.83921)" fill="none" stroke-linejoin="miter" d="M 0.499632 0.500066 L 97.171473 0.500066 " stroke="#000000" stroke-width="1" stroke-opacity="1" stroke-miterlimit="4"/><g fill="#ff914d" fill-opacity="1"><g transform="translate(40.045146, 200.93902)"><g><path d="M 7.113281 -14.746094 C 9.640625 -13.3125 12.394531 -12.738281 15.203125 -12.621094 C 18.246094 -12.507812 21.230469 -12.738281 24.210938 -13.3125 C 25.1875 -13.484375 25.359375 -13.253906 25.074219 -12.277344 C 24.957031 -11.992188 24.84375 -11.703125 24.730469 -11.417969 C 22.375 -3.785156 20.539062 3.902344 20.367188 11.933594 C 20.367188 13.484375 20.539062 14.976562 21.054688 16.464844 C 21.628906 17.957031 23.523438 19.394531 25.246094 17.84375 C 24.554688 17.785156 23.867188 17.785156 23.753906 16.984375 C 23.523438 15.375 23.121094 13.769531 23.179688 12.105469 C 23.464844 5.105469 25.074219 -1.664062 27.082031 -8.375 C 27.253906 -8.949219 27.308594 -9.867188 27.769531 -9.984375 C 28.34375 -10.039062 28.628906 -9.179688 29.03125 -8.722656 C 33.277344 -3.15625 37.867188 2.066406 43.03125 6.710938 C 47.449219 10.730469 52.097656 14.457031 57.835938 16.523438 C 62.195312 18.074219 66.210938 17.730469 69.941406 14.804688 C 71.546875 13.484375 72.808594 11.820312 74.015625 10.097656 C 74.1875 9.925781 74.53125 9.640625 74.242188 9.410156 C 73.957031 9.121094 73.554688 9.351562 73.269531 9.523438 C 73.152344 9.640625 73.039062 9.867188 72.921875 9.984375 C 71.488281 11.703125 69.996094 13.367188 68.160156 14.746094 C 66.269531 16.179688 64.144531 16.464844 62.023438 15.664062 C 59.269531 14.6875 56.628906 13.539062 54.160156 11.875 C 47.851562 7.632812 42.570312 2.238281 37.523438 -3.441406 C 34.769531 -6.539062 32.300781 -9.984375 29.320312 -12.964844 C 28.628906 -13.769531 28.800781 -14.34375 29.835938 -14.628906 C 34.941406 -16.007812 39.703125 -18.128906 44.351562 -20.65625 C 54.679688 -26.390625 64.71875 -32.644531 74.359375 -39.417969 C 81.53125 -44.464844 88.242188 -50.089844 94.4375 -56.285156 C 94.667969 -56.515625 95.183594 -56.742188 94.898438 -57.089844 C 94.667969 -57.488281 94.152344 -57.261719 93.808594 -57.03125 C 93.0625 -56.570312 92.375 -56.054688 91.742188 -55.480469 C 86.980469 -51.0625 82.105469 -46.761719 76.882812 -42.859375 C 68.503906 -36.605469 59.726562 -30.925781 50.71875 -25.648438 C 45.039062 -22.320312 39.300781 -19.046875 33.105469 -16.8125 C 32.015625 -16.410156 30.925781 -16.007812 29.777344 -15.835938 C 29.71875 -16.238281 29.890625 -16.523438 30.007812 -16.8125 C 33.164062 -24.957031 36.890625 -32.820312 40.5625 -40.734375 C 44.582031 -49.34375 49.285156 -57.605469 53.875 -65.925781 C 54.277344 -66.667969 54.621094 -67.414062 54.90625 -68.21875 C 55.195312 -68.90625 54.90625 -69.25 54.105469 -69.078125 C 53.359375 -68.964844 52.84375 -68.503906 52.382812 -67.875 C 47.851562 -61.046875 44.0625 -53.816406 40.335938 -46.589844 C 35.285156 -36.71875 30.292969 -26.851562 26.507812 -16.464844 C 26.449219 -16.351562 26.390625 -16.292969 26.277344 -16.121094 C 24.902344 -17.269531 23.523438 -18.476562 22.148438 -19.621094 C 19.566406 -21.859375 16.984375 -24.15625 13.828125 -25.589844 C 11.417969 -26.738281 8.894531 -27.308594 6.195312 -26.449219 C 2.523438 -25.246094 1.148438 -21.113281 3.386719 -17.957031 C 4.359375 -16.582031 5.679688 -15.605469 7.113281 -14.746094 Z M 5.507812 -24.097656 C 6.3125 -25.300781 7.402344 -25.761719 8.777344 -25.417969 C 10.84375 -24.957031 12.679688 -24.097656 14.34375 -22.894531 C 17.671875 -20.484375 20.597656 -17.558594 23.582031 -14.804688 C 23.636719 -14.746094 23.636719 -14.628906 23.753906 -14.457031 C 19.964844 -14 16.292969 -13.597656 12.621094 -14.574219 C 10.039062 -15.261719 7.804688 -16.464844 6.082031 -18.53125 C 4.53125 -20.253906 4.359375 -22.492188 5.507812 -24.097656 Z M 5.507812 -24.097656 "/></g></g></g><g fill="#ff914d" fill-opacity="1"><g transform="translate(105.33784, 200.93902)"><g><path d="M -4.1875 18.1875 C -2.8125 18.300781 0 17.097656 1.148438 15.894531 C 1.320312 15.722656 1.722656 15.492188 1.433594 15.203125 C 1.148438 14.859375 0.804688 15.03125 0.574219 15.261719 C -0.34375 16.066406 -1.378906 16.582031 -2.46875 17.039062 C -5.164062 18.246094 -6.710938 17.210938 -6.65625 14.230469 C -6.65625 12.222656 -5.96875 10.328125 -5.105469 8.492188 C -3.386719 4.820312 -1.089844 1.550781 1.089844 -1.777344 C 1.835938 -2.984375 2.523438 -4.1875 2.925781 -5.566406 C 3.15625 -6.3125 3.441406 -7.285156 2.867188 -7.804688 C 1.664062 -9.007812 2.296875 -9.8125 3.269531 -10.671875 C 3.5 -10.84375 3.613281 -11.1875 3.730469 -11.53125 C 3.84375 -11.875 3.84375 -12.222656 3.558594 -12.449219 C 2.984375 -13.140625 2.238281 -13.484375 1.320312 -13.3125 C 0.230469 -13.082031 -0.574219 -12.449219 -0.859375 -11.304688 C -1.089844 -10.386719 -0.804688 -9.410156 -0.0585938 -8.894531 C 0.574219 -8.492188 0.632812 -8.03125 0.515625 -7.457031 C 0.402344 -6.367188 0 -5.394531 -0.574219 -4.476562 C -1.492188 -2.984375 -2.410156 -1.492188 -3.328125 -0.0585938 C -4.992188 2.523438 -6.539062 5.105469 -7.632812 7.917969 C -8.492188 10.328125 -8.835938 12.738281 -8.03125 15.261719 C -7.515625 16.867188 -5.851562 18.128906 -4.1875 18.1875 Z M -4.1875 18.1875 "/></g></g></g><g fill="#ff914d" fill-opacity="1"><g transform="translate(120.542207, 200.93902)"><g><path d="M 11.015625 2.351562 C 16.410156 0.34375 27.539062 -8.148438 38.269531 -9.582031 C 37.925781 -10.328125 37.410156 -10.328125 36.949219 -10.328125 C 27.597656 -9.292969 15.320312 -1.203125 11.703125 0.515625 C 10.097656 1.261719 8.433594 1.777344 6.597656 1.949219 C 5.277344 2.066406 4.074219 1.777344 3.15625 0.6875 C 0.976562 -2.121094 0.804688 -5.050781 2.238281 -8.203125 C 2.523438 -8.835938 2.867188 -9.179688 3.671875 -8.949219 C 4.761719 -8.664062 5.851562 -8.722656 6.941406 -9.066406 C 9.179688 -9.8125 11.015625 -11.1875 12.679688 -12.792969 C 12.964844 -13.082031 13.140625 -13.367188 13.3125 -13.710938 C 13.769531 -14.628906 13.597656 -15.546875 12.738281 -16.179688 C 11.359375 -17.15625 9.867188 -17.730469 8.203125 -17.210938 C 3.902344 -15.949219 0.632812 -13.425781 -0.976562 -9.121094 C -1.949219 -6.484375 -1.664062 -3.957031 -0.285156 -1.664062 C 2.523438 2.925781 5.851562 4.304688 11.015625 2.351562 Z M 10.902344 -15.03125 C 10.210938 -12.910156 6.484375 -10.558594 4.1875 -10.785156 C 5.105469 -12.792969 8.835938 -15.148438 10.902344 -15.03125 Z M 10.902344 -15.03125 "/></g></g></g><g fill="#ff914d" fill-opacity="1"><g transform="translate(157.950675, 200.93902)"><g><path d="M 4.015625 -1.835938 C 4.132812 -0.632812 4.304688 0.574219 4.875 1.664062 C 6.828125 5.335938 10.730469 6.140625 14 4.761719 C 20.597656 1.949219 32.992188 -8.894531 40.105469 -9.753906 C 40.046875 -9.984375 40.046875 -10.097656 39.992188 -10.15625 C 38.039062 -12.335938 20.425781 -0.230469 14.628906 2.582031 C 13.140625 3.328125 11.648438 3.957031 9.925781 3.957031 C 9.066406 3.902344 8.492188 3.558594 8.148438 2.753906 C 7.804688 1.949219 7.632812 1.089844 7.632812 0.171875 C 7.574219 -1.894531 7.976562 -3.84375 8.777344 -5.792969 C 9.410156 -7.402344 10.386719 -8.835938 11.246094 -10.328125 C 11.875 -11.53125 11.761719 -11.933594 10.558594 -12.507812 C 10.210938 -12.679688 9.867188 -12.910156 9.523438 -12.792969 C 8.894531 -12.566406 8.550781 -12.910156 8.089844 -13.195312 C 6.367188 -14.171875 4.648438 -14.402344 2.925781 -13.3125 C -1.203125 -10.730469 -3.097656 -6.828125 -2.984375 -2.066406 C -2.984375 -0.460938 -1.148438 0.460938 0.34375 -0.230469 C 0.917969 -0.515625 1.433594 -0.917969 1.835938 -1.378906 C 2.46875 -1.949219 3.097656 -2.582031 3.785156 -3.269531 C 4.015625 -2.695312 3.957031 -2.238281 4.015625 -1.835938 Z M 0.804688 -2.523438 C 0.402344 -2.179688 -0.0585938 -1.894531 -0.6875 -1.433594 C -0.6875 -2.695312 -0.460938 -3.613281 -0.113281 -4.417969 C 0.917969 -7.058594 2.410156 -9.292969 4.589844 -11.128906 C 4.992188 -11.476562 5.507812 -11.703125 5.96875 -11.992188 C 6.253906 -12.164062 6.65625 -12.222656 6.886719 -11.820312 C 7.113281 -11.476562 7.34375 -11.1875 7.058594 -10.730469 C 5.222656 -7.804688 3.441406 -4.820312 0.804688 -2.523438 Z M 0.804688 -2.523438 "/></g></g></g><g fill="#ff914d" fill-opacity="1"><g transform="translate(196.678772, 200.93902)"><g><path d="M 29.835938 -9.121094 C 29.320312 -9.695312 28.859375 -9.523438 28.402344 -9.351562 C 27.65625 -9.007812 26.910156 -8.664062 26.21875 -8.203125 C 21.800781 -5.335938 17.441406 -2.410156 13.195312 0.804688 C 10.210938 3.097656 7.285156 5.566406 3.785156 7.171875 C 1.320312 8.261719 -0.515625 7.171875 -0.804688 4.476562 C -0.859375 3.902344 -0.859375 3.328125 -0.804688 2.753906 C -0.34375 -1.378906 0.515625 -5.449219 2.066406 -9.238281 C 8.261719 -24.269531 16.066406 -38.328125 25.074219 -51.808594 C 25.53125 -52.441406 25.992188 -52.5 26.621094 -52.382812 C 29.777344 -51.753906 32.875 -51.121094 35.972656 -50.546875 C 45.328125 -48.882812 54.679688 -47.5625 64.144531 -49 C 67.128906 -49.398438 70.285156 -49.6875 72.179688 -52.613281 C 72.292969 -52.898438 72.808594 -53.015625 72.523438 -53.417969 C 72.292969 -53.703125 71.890625 -53.644531 71.605469 -53.53125 C 71.085938 -53.359375 70.628906 -53.070312 70.339844 -52.613281 C 70.054688 -52.152344 69.710938 -51.808594 69.25 -51.636719 C 67.988281 -51.292969 66.84375 -50.777344 65.578125 -50.605469 C 60.816406 -49.800781 56.054688 -49.570312 51.292969 -49.742188 C 43.089844 -50.03125 35.171875 -51.753906 27.195312 -53.300781 C 26.335938 -53.53125 26.449219 -53.816406 26.851562 -54.390625 C 28.054688 -56.113281 29.320312 -57.890625 30.523438 -59.671875 C 30.808594 -60.128906 31.328125 -60.644531 30.867188 -61.21875 C 30.464844 -61.734375 29.777344 -61.90625 29.089844 -61.851562 C 28.402344 -61.734375 28 -61.277344 27.597656 -60.816406 C 26.105469 -58.980469 24.730469 -57.03125 23.464844 -55.078125 C 23.066406 -54.449219 22.664062 -54.335938 21.976562 -54.449219 C 19.21875 -55.023438 16.523438 -55.539062 13.828125 -55.996094 C 5.96875 -57.316406 -1.894531 -57.777344 -9.8125 -56.742188 C -13.425781 -56.285156 -16.984375 -55.480469 -20.253906 -53.816406 C -21.402344 -53.1875 -22.492188 -52.554688 -23.066406 -51.292969 C -23.523438 -50.488281 -23.121094 -49.800781 -22.089844 -49.457031 C -21.515625 -49.285156 -20.710938 -48.882812 -20.941406 -50.203125 C -21 -50.375 -20.65625 -50.605469 -20.425781 -50.835938 C -19.335938 -51.867188 -18.015625 -52.554688 -16.582031 -53.015625 C -14.628906 -53.703125 -12.566406 -54.277344 -10.5 -54.621094 C 0.171875 -56.285156 10.785156 -55.367188 21.34375 -53.359375 C 22.433594 -53.1875 21.859375 -52.726562 21.628906 -52.269531 C 19.910156 -49.628906 18.246094 -46.988281 16.582031 -44.351562 C 10.785156 -35.171875 5.050781 -25.875 0.917969 -15.777344 C -1.433594 -10.097656 -2.925781 -4.132812 -3.15625 2.066406 C -3.328125 7.171875 0.6875 9.8125 5.335938 7.574219 C 6.941406 6.769531 8.492188 5.792969 9.984375 4.761719 C 16.582031 0.171875 22.835938 -5.050781 29.835938 -9.121094 Z M 29.835938 -9.121094 "/></g></g></g><g fill="#ff914d" fill-opacity="1"><g transform="translate(225.021997, 200.93902)"><g><path d="M 4.589844 -13.828125 C 3.84375 -14.457031 3.214844 -14.457031 2.46875 -13.769531 C 2.179688 -13.484375 1.894531 -13.195312 1.605469 -12.910156 C -1.894531 -8.203125 -4.648438 -3.214844 -5.222656 2.753906 C -5.449219 4.304688 -5.394531 5.851562 -5.050781 7.402344 C -4.761719 8.605469 -4.246094 9.8125 -3.441406 10.84375 C -1.835938 12.738281 -0.0585938 12.964844 2.007812 11.648438 C 2.351562 11.417969 2.695312 11.074219 3.039062 10.785156 C 5.96875 8.320312 8.550781 5.507812 11.1875 2.753906 C 14.402344 -0.632812 17.902344 -3.5 22.148438 -5.566406 C 24.554688 -6.710938 26.851562 -7.976562 29.375 -8.894531 C 29.605469 -8.949219 29.835938 -9.007812 29.777344 -9.292969 C 29.777344 -9.523438 29.546875 -9.640625 29.320312 -9.640625 C 28.859375 -9.695312 28.515625 -9.523438 28.171875 -9.351562 C 26.851562 -8.777344 25.53125 -8.203125 24.269531 -7.574219 C 21.746094 -6.367188 19.105469 -5.277344 16.695312 -3.730469 C 13.195312 -1.605469 10.210938 1.203125 7.402344 4.1875 C 5.792969 5.792969 4.359375 7.574219 2.46875 8.835938 C 1.378906 9.582031 0.34375 10.328125 -1.03125 10.386719 C -2.066406 10.441406 -2.351562 10.210938 -2.582031 9.238281 C -2.867188 8.03125 -2.867188 6.828125 -2.753906 5.621094 C -2.296875 1.148438 -0.574219 -2.925781 1.722656 -6.769531 C 2.753906 -8.492188 3.84375 -10.039062 4.875 -11.703125 C 5.394531 -12.566406 5.277344 -13.253906 4.589844 -13.828125 Z M 7.230469 -16.640625 C 7.746094 -16.464844 8.089844 -16.8125 8.03125 -17.328125 C 8.03125 -18.1875 7.058594 -19.046875 6.082031 -19.164062 C 5.566406 -19.21875 5.277344 -18.875 5.449219 -18.359375 C 5.738281 -17.5 6.425781 -16.925781 7.230469 -16.640625 Z M 7.230469 -16.640625 "/></g></g></g><g fill="#ff914d" fill-opacity="1"><g transform="translate(253.996364, 200.93902)"><g><path d="M 44.636719 -9.695312 C 44.292969 -9.753906 43.949219 -9.582031 43.664062 -9.410156 C 42.515625 -8.894531 41.425781 -8.320312 40.335938 -7.746094 C 37.582031 -6.425781 34.882812 -4.933594 31.957031 -3.957031 C 29.664062 -3.15625 27.308594 -2.410156 24.84375 -2.410156 C 22.148438 -2.410156 20.136719 -3.558594 18.703125 -5.792969 C 18.476562 -6.195312 18.246094 -6.65625 18.015625 -7.058594 C 17.613281 -7.917969 17.15625 -8.664062 16.351562 -9.238281 C 15.203125 -10.15625 15.089844 -10.269531 14.113281 -9.238281 C 11.304688 -6.425781 8.550781 -3.558594 5.96875 -0.460938 C 3.269531 2.8125 0.6875 6.140625 -2.179688 9.238281 C -2.582031 9.640625 -2.925781 10.039062 -3.441406 10.386719 C -3.730469 9.8125 -3.558594 9.292969 -3.5 8.835938 C -3.097656 6.828125 -2.46875 4.933594 -1.777344 2.984375 C -0.230469 -1.433594 2.066406 -5.507812 4.648438 -9.410156 C 4.992188 -9.984375 5.394531 -10.5 5.679688 -11.074219 C 6.140625 -11.820312 6.082031 -12.046875 5.394531 -12.566406 C 4.359375 -13.425781 3.214844 -13.367188 2.121094 -12.507812 C 1.320312 -11.820312 0.6875 -10.957031 0.113281 -10.097656 C -2.753906 -6.023438 -4.476562 -1.492188 -5.738281 3.269531 C -6.195312 5.105469 -6.367188 7.058594 -6.3125 8.949219 C -6.3125 9.523438 -6.253906 10.097656 -6.082031 10.671875 C -5.566406 12.507812 -3.039062 13.195312 -1.949219 11.820312 C -1.378906 10.957031 -0.574219 10.328125 0.0585938 9.523438 C 3.441406 5.507812 6.65625 1.378906 10.097656 -2.582031 C 11.589844 -4.246094 13.140625 -5.910156 14.6875 -7.574219 C 15.261719 -8.203125 15.375 -8.203125 15.777344 -7.34375 C 15.949219 -6.941406 16.179688 -6.484375 16.464844 -6.082031 C 19.105469 -2.351562 22.71875 -0.859375 27.195312 -1.492188 C 30.179688 -1.894531 32.933594 -3.039062 35.628906 -4.304688 C 38.441406 -5.566406 41.136719 -7 43.890625 -8.375 C 44.234375 -8.550781 44.582031 -8.777344 44.925781 -8.949219 C 45.039062 -9.066406 45.210938 -9.179688 45.152344 -9.410156 C 45.097656 -9.640625 44.867188 -9.695312 44.636719 -9.695312 Z M 44.636719 -9.695312 "/></g></g></g><g fill="#ff914d" fill-opacity="1"><g transform="translate(297.543969, 200.93902)"><g><path d="M 11.015625 2.351562 C 16.410156 0.34375 27.539062 -8.148438 38.269531 -9.582031 C 37.925781 -10.328125 37.410156 -10.328125 36.949219 -10.328125 C 27.597656 -9.292969 15.320312 -1.203125 11.703125 0.515625 C 10.097656 1.261719 8.433594 1.777344 6.597656 1.949219 C 5.277344 2.066406 4.074219 1.777344 3.15625 0.6875 C 0.976562 -2.121094 0.804688 -5.050781 2.238281 -8.203125 C 2.523438 -8.835938 2.867188 -9.179688 3.671875 -8.949219 C 4.761719 -8.664062 5.851562 -8.722656 6.941406 -9.066406 C 9.179688 -9.8125 11.015625 -11.1875 12.679688 -12.792969 C 12.964844 -13.082031 13.140625 -13.367188 13.3125 -13.710938 C 13.769531 -14.628906 13.597656 -15.546875 12.738281 -16.179688 C 11.359375 -17.15625 9.867188 -17.730469 8.203125 -17.210938 C 3.902344 -15.949219 0.632812 -13.425781 -0.976562 -9.121094 C -1.949219 -6.484375 -1.664062 -3.957031 -0.285156 -1.664062 C 2.523438 2.925781 5.851562 4.304688 11.015625 2.351562 Z M 10.902344 -15.03125 C 10.210938 -12.910156 6.484375 -10.558594 4.1875 -10.785156 C 5.105469 -12.792969 8.835938 -15.148438 10.902344 -15.03125 Z M 10.902344 -15.03125 "/></g></g></g></svg>